<?xml version="1.0" encoding="UTF-8" standalone="no"?>
<!DOCTYPE svg PUBLIC "-//W3C//DTD SVG 1.1//EN" "http://www.w3.org/Graphics/SVG/1.1/DTD/svg11.dtd">
<svg width="100%" height="100%" viewBox="0 0 600 187" version="1.1" xmlns="http://www.w3.org/2000/svg" xmlns:xlink="http://www.w3.org/1999/xlink" xml:space="preserve" xmlns:serif="http://www.serif.com/" style="fill-rule:evenodd;clip-rule:evenodd;stroke-linecap:round;stroke-linejoin:round;stroke-miterlimit:1.5;">
    <g transform="matrix(1,0,0,1,-1,0)">
        <path d="M209.48,42.854L27.238,42.854C27.238,42.854 20.36,43.472 16.732,48.806C13.104,54.139 13.793,58.425 13.793,58.425L13.793,153.076C13.793,153.076 13.348,161.596 18.23,166.596C23.112,171.595 28.74,173.436 28.74,173.436L562.881,173.436C562.881,173.436 573.489,174.534 579.883,167.913C585.804,161.781 584.676,153.947 584.676,153.947L584.676,60.62C584.676,60.62 584.775,54.474 578.704,48.142C574.012,43.247 568.369,42.466 568.369,42.466L383.924,42.466" style="fill:none;stroke:black;stroke-width:17px;"/>
    </g>
    <g transform="matrix(1.24571,0,0,1.45981,34.5454,-59.1951)">
        <g transform="matrix(72,0,0,72,268.373,138.73)">
            <path d="M0.168,0L0.004,-0.519L0.138,-0.519L0.235,-0.179L0.324,-0.519L0.457,-0.519L0.543,-0.179L0.642,-0.519L0.777,-0.519L0.611,0L0.479,0L0.39,-0.333L0.302,0L0.168,0Z" style="fill-rule:nonzero;"/>
        </g>
        <g transform="matrix(72,0,0,72,320.828,138.73)">
            <path d="M0.04,-0.267C0.04,-0.312 0.051,-0.356 0.074,-0.399C0.096,-0.442 0.128,-0.474 0.169,-0.497C0.21,-0.519 0.256,-0.53 0.307,-0.53C0.386,-0.53 0.45,-0.505 0.5,-0.454C0.55,-0.403 0.575,-0.339 0.575,-0.261C0.575,-0.182 0.55,-0.117 0.499,-0.066C0.449,-0.014 0.385,0.012 0.308,0.012C0.261,0.012 0.215,0.001 0.172,-0.021C0.129,-0.042 0.096,-0.073 0.074,-0.115C0.051,-0.156 0.04,-0.207 0.04,-0.267ZM0.181,-0.259C0.181,-0.208 0.193,-0.168 0.217,-0.141C0.242,-0.114 0.272,-0.1 0.308,-0.1C0.343,-0.1 0.373,-0.114 0.398,-0.141C0.422,-0.168 0.434,-0.208 0.434,-0.26C0.434,-0.311 0.422,-0.35 0.398,-0.377C0.373,-0.405 0.343,-0.418 0.308,-0.418C0.272,-0.418 0.242,-0.405 0.217,-0.377C0.193,-0.35 0.181,-0.311 0.181,-0.259Z" style="fill-rule:nonzero;"/>
        </g>
        <g transform="matrix(72,0,0,72,362.146,138.73)">
            <path d="M0.203,0L0.066,0L0.066,-0.519L0.193,-0.519L0.193,-0.445C0.215,-0.48 0.235,-0.503 0.252,-0.514C0.27,-0.525 0.289,-0.53 0.312,-0.53C0.343,-0.53 0.373,-0.522 0.402,-0.504L0.359,-0.385C0.336,-0.4 0.315,-0.407 0.295,-0.407C0.276,-0.407 0.259,-0.402 0.246,-0.391C0.233,-0.381 0.222,-0.362 0.215,-0.334C0.207,-0.306 0.203,-0.248 0.203,-0.16L0.203,0Z" style="fill-rule:nonzero;"/>
        </g>
        <g transform="matrix(72,0,0,72,386.617,138.73)">
            <path d="M0.547,0L0.42,0L0.42,-0.076C0.399,-0.047 0.374,-0.024 0.345,-0.01C0.316,0.004 0.287,0.012 0.258,0.012C0.198,0.012 0.147,-0.012 0.105,-0.06C0.062,-0.108 0.041,-0.175 0.041,-0.261C0.041,-0.349 0.062,-0.416 0.103,-0.462C0.144,-0.507 0.197,-0.53 0.26,-0.53C0.318,-0.53 0.368,-0.506 0.41,-0.458L0.41,-0.716L0.547,-0.716L0.547,0ZM0.181,-0.271C0.181,-0.215 0.189,-0.175 0.204,-0.15C0.226,-0.115 0.257,-0.097 0.297,-0.097C0.328,-0.097 0.355,-0.11 0.377,-0.137C0.4,-0.164 0.411,-0.204 0.411,-0.257C0.411,-0.317 0.4,-0.36 0.378,-0.386C0.357,-0.412 0.329,-0.425 0.296,-0.425C0.263,-0.425 0.236,-0.412 0.214,-0.386C0.192,-0.361 0.181,-0.322 0.181,-0.271Z" style="fill-rule:nonzero;"/>
        </g>
    </g>
    <g transform="matrix(1,0,0,1,-212.949,4.98285)">
        <text x="267.486px" y="138.73px" style="font-family:'Arial-BoldMT', 'Arial', sans-serif;font-weight:700;font-size:96px;">CV</text>
    </g>
    <g transform="matrix(1,0,0,1,109,0)">
        <path d="M136.783,44.064L136.783,131.434L144.11,139.299L232.933,139.299L239.462,131.871L239.462,17.991L233.835,9.731L171.759,9.731L136.783,44.064Z" style="fill:none;stroke:black;stroke-width:12px;"/>
    </g>
    <g transform="matrix(1,0,0,1,109,0)">
        <path d="M189.659,48.257L189.659,118.946" style="fill:none;stroke:black;stroke-width:12px;"/>
    </g>
    <g transform="matrix(1,0,0,1,109,0)">
        <path d="M161.812,94.483L188.823,121.494L216.09,94.227" style="fill:none;stroke:black;stroke-width:12px;"/>
    </g>
    <g transform="matrix(1,0,0,1,109,0)">
        <path d="M138.896,42.84L171.887,42.84L171.887,10.68" style="fill:none;stroke:black;stroke-width:12px;"/>
    </g>
</svg>
